<svg width="1440" height="572" viewBox="0 0 1440 572" fill="none" xmlns="http://www.w3.org/2000/svg">
<path d="M1440 572H888L1440 0V572Z" fill="#453C77"/>
<path d="M0 38H179.58L0 187.425V38Z" fill="#453C77"/>
<path d="M1152.87 392.024C1158.72 405.776 1167.3 418.271 1178.11 428.796C1188.93 439.322 1201.76 447.673 1215.89 453.37C1230.02 459.068 1245.16 462 1260.46 462C1275.75 462 1290.89 459.068 1305.02 453.37C1319.15 447.673 1331.99 439.322 1342.8 428.796L1440 305.27V41.5H1400L1178.11 268.498C1167.3 279.022 1158.72 291.518 1152.87 305.27C1147.01 319.022 1144 333.761 1144 348.647C1144 363.532 1147.01 378.272 1152.87 392.024Z" fill="url(#paint0_linear)"/>
<path d="M1205.5 508C1326.17 508 1424 410.398 1424 290C1424 169.602 1326.17 72 1205.5 72C1084.83 72 987 169.602 987 290C987 410.398 1084.83 508 1205.5 508Z" fill="url(#paint1_radial)"/>
<path d="M1319.23 572H1438V396C1438 396 1319.23 460.723 1319.23 572Z" fill="url(#paint2_radial)"/>
<path d="M1027.8 132.418C1027.8 132.782 1027.69 133.138 1027.49 133.441C1027.29 133.743 1027 133.979 1026.66 134.118C1026.32 134.257 1025.95 134.292 1025.6 134.22C1025.24 134.148 1024.91 133.971 1024.66 133.713C1024.4 133.454 1024.22 133.125 1024.16 132.767C1024.09 132.41 1024.12 132.04 1024.27 131.704C1024.41 131.368 1024.65 131.082 1024.95 130.882C1025.25 130.681 1025.61 130.576 1025.97 130.579C1026.22 130.579 1026.45 130.626 1026.68 130.719C1026.9 130.812 1027.1 130.947 1027.27 131.118C1027.44 131.289 1027.57 131.492 1027.66 131.715C1027.76 131.938 1027.8 132.177 1027.8 132.418Z" fill="#FFA522"/>
<path d="M1039.9 134.256C1040.91 134.256 1041.73 133.433 1041.73 132.418C1041.73 131.402 1040.91 130.579 1039.9 130.579C1038.88 130.579 1038.06 131.402 1038.06 132.418C1038.06 133.433 1038.88 134.256 1039.9 134.256Z" fill="#FFA522"/>
<path d="M1053.83 134.256C1054.85 134.256 1055.67 133.433 1055.67 132.418C1055.67 131.402 1054.85 130.579 1053.83 130.579C1052.82 130.579 1051.99 131.402 1051.99 132.418C1051.99 133.433 1052.82 134.256 1053.83 134.256Z" fill="#FFA522"/>
<path d="M1067.75 134.256C1068.77 134.256 1069.59 133.433 1069.59 132.418C1069.59 131.402 1068.77 130.579 1067.75 130.579C1066.74 130.579 1065.91 131.402 1065.91 132.418C1065.91 133.433 1066.74 134.256 1067.75 134.256Z" fill="#FFA522"/>
<path d="M1083.51 132.418C1083.51 132.782 1083.4 133.138 1083.2 133.441C1083 133.743 1082.71 133.979 1082.37 134.118C1082.04 134.257 1081.67 134.292 1081.31 134.22C1080.95 134.148 1080.62 133.971 1080.37 133.713C1080.11 133.454 1079.94 133.125 1079.87 132.767C1079.8 132.41 1079.84 132.04 1079.98 131.704C1080.12 131.368 1080.36 131.082 1080.66 130.882C1080.97 130.681 1081.32 130.576 1081.69 130.579C1081.93 130.579 1082.17 130.626 1082.39 130.719C1082.61 130.812 1082.81 130.947 1082.98 131.118C1083.15 131.289 1083.29 131.492 1083.38 131.715C1083.47 131.938 1083.51 132.177 1083.51 132.418Z" fill="#FFA522"/>
<path d="M1027.8 145.462C1027.8 145.827 1027.69 146.183 1027.49 146.485C1027.29 146.788 1027 147.024 1026.66 147.163C1026.32 147.301 1025.95 147.337 1025.6 147.265C1025.24 147.193 1024.91 147.016 1024.66 146.757C1024.4 146.499 1024.22 146.17 1024.16 145.812C1024.09 145.454 1024.12 145.084 1024.27 144.749C1024.41 144.413 1024.65 144.127 1024.95 143.926C1025.25 143.726 1025.61 143.621 1025.97 143.623C1026.22 143.623 1026.45 143.671 1026.68 143.764C1026.9 143.856 1027.1 143.992 1027.27 144.163C1027.44 144.334 1027.57 144.537 1027.66 144.76C1027.76 144.983 1027.8 145.221 1027.8 145.462Z" fill="#FFA522"/>
<path d="M1039.9 147.301C1040.91 147.301 1041.73 146.478 1041.73 145.462C1041.73 144.447 1040.91 143.623 1039.9 143.623C1038.88 143.623 1038.06 144.447 1038.06 145.462C1038.06 146.478 1038.88 147.301 1039.9 147.301Z" fill="#FFA522"/>
<path d="M1053.83 147.301C1054.85 147.301 1055.67 146.478 1055.67 145.462C1055.67 144.447 1054.85 143.623 1053.83 143.623C1052.82 143.623 1051.99 144.447 1051.99 145.462C1051.99 146.478 1052.82 147.301 1053.83 147.301Z" fill="#FFA522"/>
<path d="M1067.75 147.301C1068.77 147.301 1069.59 146.478 1069.59 145.462C1069.59 144.447 1068.77 143.623 1067.75 143.623C1066.74 143.623 1065.91 144.447 1065.91 145.462C1065.91 146.478 1066.74 147.301 1067.75 147.301Z" fill="#FFA522"/>
<path d="M1083.51 145.462C1083.51 145.827 1083.4 146.183 1083.2 146.485C1083 146.788 1082.71 147.024 1082.37 147.163C1082.04 147.301 1081.67 147.337 1081.31 147.265C1080.95 147.193 1080.62 147.016 1080.37 146.757C1080.11 146.499 1079.94 146.17 1079.87 145.812C1079.8 145.454 1079.84 145.084 1079.98 144.749C1080.12 144.413 1080.36 144.127 1080.66 143.926C1080.97 143.726 1081.32 143.621 1081.69 143.623C1081.93 143.623 1082.17 143.671 1082.39 143.764C1082.61 143.856 1082.81 143.992 1082.98 144.163C1083.15 144.334 1083.29 144.537 1083.38 144.76C1083.47 144.983 1083.51 145.221 1083.51 145.462Z" fill="#FFA522"/>
<path d="M1027.8 158.507C1027.8 158.871 1027.69 159.227 1027.49 159.53C1027.29 159.833 1027 160.068 1026.66 160.207C1026.32 160.346 1025.95 160.381 1025.6 160.309C1025.24 160.237 1024.91 160.061 1024.66 159.802C1024.4 159.543 1024.22 159.214 1024.16 158.857C1024.09 158.499 1024.12 158.129 1024.27 157.793C1024.41 157.457 1024.65 157.171 1024.95 156.971C1025.25 156.771 1025.61 156.665 1025.97 156.668C1026.22 156.668 1026.45 156.716 1026.68 156.808C1026.9 156.901 1027.1 157.037 1027.27 157.207C1027.44 157.378 1027.57 157.581 1027.66 157.804C1027.76 158.027 1027.8 158.266 1027.8 158.507Z" fill="#FFA522"/>
<path d="M1041.73 158.507C1041.73 158.871 1041.63 159.226 1041.42 159.529C1041.22 159.831 1040.94 160.067 1040.6 160.206C1040.26 160.345 1039.89 160.381 1039.54 160.31C1039.18 160.24 1038.85 160.064 1038.6 159.807C1038.34 159.55 1038.16 159.222 1038.09 158.866C1038.02 158.509 1038.06 158.139 1038.2 157.803C1038.34 157.467 1038.57 157.18 1038.87 156.978C1039.18 156.776 1039.53 156.668 1039.9 156.668C1040.14 156.666 1040.38 156.712 1040.6 156.804C1040.83 156.896 1041.03 157.031 1041.2 157.202C1041.37 157.373 1041.51 157.577 1041.6 157.801C1041.69 158.025 1041.74 158.265 1041.73 158.507Z" fill="#FFA522"/>
<path d="M1055.66 158.507C1055.66 158.871 1055.55 159.227 1055.34 159.53C1055.14 159.833 1054.85 160.068 1054.52 160.207C1054.18 160.346 1053.81 160.381 1053.45 160.309C1053.1 160.237 1052.77 160.061 1052.51 159.802C1052.25 159.543 1052.08 159.214 1052.01 158.857C1051.94 158.499 1051.98 158.129 1052.12 157.793C1052.26 157.457 1052.5 157.171 1052.81 156.971C1053.11 156.771 1053.47 156.665 1053.83 156.668C1054.07 156.668 1054.31 156.716 1054.53 156.808C1054.76 156.901 1054.96 157.037 1055.13 157.207C1055.3 157.378 1055.43 157.581 1055.52 157.804C1055.61 158.027 1055.66 158.266 1055.66 158.507Z" fill="#FFA522"/>
<path d="M1069.59 158.507C1069.59 158.871 1069.48 159.226 1069.28 159.529C1069.08 159.831 1068.79 160.067 1068.46 160.206C1068.12 160.345 1067.75 160.381 1067.39 160.31C1067.04 160.24 1066.71 160.064 1066.45 159.807C1066.19 159.55 1066.02 159.222 1065.95 158.866C1065.88 158.509 1065.91 158.139 1066.05 157.803C1066.19 157.467 1066.43 157.18 1066.73 156.978C1067.03 156.776 1067.39 156.668 1067.75 156.668C1067.99 156.666 1068.23 156.712 1068.46 156.804C1068.68 156.896 1068.89 157.031 1069.06 157.202C1069.23 157.373 1069.36 157.577 1069.45 157.801C1069.55 158.025 1069.59 158.265 1069.59 158.507Z" fill="#FFA522"/>
<path d="M1083.51 158.507C1083.51 158.871 1083.4 159.227 1083.2 159.53C1083 159.833 1082.71 160.068 1082.37 160.207C1082.04 160.346 1081.67 160.381 1081.31 160.309C1080.95 160.237 1080.62 160.061 1080.37 159.802C1080.11 159.543 1079.94 159.214 1079.87 158.857C1079.8 158.499 1079.84 158.129 1079.98 157.793C1080.12 157.457 1080.36 157.171 1080.66 156.971C1080.97 156.771 1081.32 156.665 1081.69 156.668C1081.93 156.668 1082.17 156.716 1082.39 156.808C1082.61 156.901 1082.81 157.037 1082.98 157.207C1083.15 157.378 1083.29 157.581 1083.38 157.804C1083.47 158.027 1083.51 158.266 1083.51 158.507Z" fill="#FFA522"/>
<path d="M1027.8 171.552C1027.8 171.916 1027.69 172.272 1027.49 172.575C1027.29 172.878 1027 173.113 1026.66 173.252C1026.32 173.391 1025.95 173.426 1025.6 173.354C1025.24 173.282 1024.91 173.105 1024.66 172.847C1024.4 172.588 1024.22 172.259 1024.16 171.902C1024.09 171.544 1024.12 171.174 1024.27 170.838C1024.41 170.502 1024.65 170.216 1024.95 170.016C1025.25 169.815 1025.61 169.71 1025.97 169.713C1026.46 169.717 1026.92 169.912 1027.27 170.256C1027.61 170.601 1027.8 171.066 1027.8 171.552Z" fill="#FFA522"/>
<path d="M1041.73 171.552C1041.73 171.915 1041.63 172.271 1041.42 172.573C1041.22 172.876 1040.94 173.111 1040.6 173.251C1040.26 173.39 1039.89 173.426 1039.54 173.355C1039.18 173.284 1038.85 173.109 1038.6 172.852C1038.34 172.595 1038.16 172.267 1038.09 171.91C1038.02 171.554 1038.06 171.184 1038.2 170.848C1038.34 170.512 1038.57 170.225 1038.87 170.023C1039.18 169.821 1039.53 169.713 1039.9 169.713C1040.38 169.713 1040.85 169.907 1041.2 170.251C1041.54 170.596 1041.73 171.064 1041.73 171.552Z" fill="#FFA522"/>
<path d="M1055.66 171.552C1055.66 171.916 1055.55 172.272 1055.34 172.575C1055.14 172.878 1054.85 173.113 1054.52 173.252C1054.18 173.391 1053.81 173.426 1053.45 173.354C1053.1 173.282 1052.77 173.105 1052.51 172.847C1052.25 172.588 1052.08 172.259 1052.01 171.902C1051.94 171.544 1051.98 171.174 1052.12 170.838C1052.26 170.502 1052.5 170.216 1052.81 170.016C1053.11 169.815 1053.47 169.71 1053.83 169.713C1054.32 169.717 1054.78 169.912 1055.12 170.256C1055.46 170.601 1055.66 171.066 1055.66 171.552Z" fill="#FFA522"/>
<path d="M1069.59 171.552C1069.59 171.915 1069.48 172.271 1069.28 172.573C1069.08 172.876 1068.79 173.111 1068.46 173.251C1068.12 173.39 1067.75 173.426 1067.39 173.355C1067.04 173.284 1066.71 173.109 1066.45 172.852C1066.19 172.595 1066.02 172.267 1065.95 171.91C1065.88 171.554 1065.91 171.184 1066.05 170.848C1066.19 170.512 1066.43 170.225 1066.73 170.023C1067.03 169.821 1067.39 169.713 1067.75 169.713C1068.24 169.713 1068.71 169.907 1069.05 170.251C1069.4 170.596 1069.59 171.064 1069.59 171.552Z" fill="#FFA522"/>
<path d="M1083.51 171.552C1083.51 171.916 1083.4 172.272 1083.2 172.575C1083 172.878 1082.71 173.113 1082.37 173.252C1082.04 173.391 1081.67 173.426 1081.31 173.354C1080.95 173.282 1080.62 173.105 1080.37 172.847C1080.11 172.588 1079.94 172.259 1079.87 171.902C1079.8 171.544 1079.84 171.174 1079.98 170.838C1080.12 170.502 1080.36 170.216 1080.66 170.016C1080.97 169.815 1081.32 169.71 1081.69 169.713C1082.17 169.717 1082.64 169.912 1082.98 170.256C1083.32 170.601 1083.51 171.066 1083.51 171.552Z" fill="#FFA522"/>
<path d="M1027.8 184.596C1027.8 184.961 1027.69 185.317 1027.49 185.62C1027.29 185.922 1027 186.158 1026.66 186.297C1026.32 186.435 1025.95 186.471 1025.6 186.399C1025.24 186.327 1024.91 186.15 1024.66 185.892C1024.4 185.633 1024.22 185.304 1024.16 184.946C1024.09 184.589 1024.12 184.218 1024.27 183.883C1024.41 183.547 1024.65 183.261 1024.95 183.06C1025.25 182.86 1025.61 182.755 1025.97 182.758C1026.46 182.761 1026.92 182.957 1027.27 183.301C1027.61 183.646 1027.8 184.111 1027.8 184.596Z" fill="#FFA522"/>
<path d="M1041.73 184.596C1041.73 184.96 1041.63 185.316 1041.42 185.618C1041.22 185.92 1040.94 186.156 1040.6 186.295C1040.26 186.434 1039.89 186.471 1039.54 186.4C1039.18 186.329 1038.85 186.154 1038.6 185.897C1038.34 185.639 1038.16 185.312 1038.09 184.955C1038.02 184.598 1038.06 184.229 1038.2 183.893C1038.34 183.557 1038.57 183.269 1038.87 183.067C1039.18 182.865 1039.53 182.757 1039.9 182.757C1040.38 182.757 1040.85 182.951 1041.2 183.296C1041.54 183.641 1041.73 184.109 1041.73 184.596Z" fill="#FFA522"/>
<path d="M1055.66 184.596C1055.66 184.961 1055.55 185.317 1055.34 185.62C1055.14 185.922 1054.85 186.158 1054.52 186.297C1054.18 186.435 1053.81 186.471 1053.45 186.399C1053.1 186.327 1052.77 186.15 1052.51 185.892C1052.25 185.633 1052.08 185.304 1052.01 184.946C1051.94 184.589 1051.98 184.218 1052.12 183.883C1052.26 183.547 1052.5 183.261 1052.81 183.06C1053.11 182.86 1053.47 182.755 1053.83 182.758C1054.32 182.761 1054.78 182.957 1055.12 183.301C1055.46 183.646 1055.66 184.111 1055.66 184.596Z" fill="#FFA522"/>
<path d="M1069.59 184.596C1069.59 184.96 1069.48 185.316 1069.28 185.618C1069.08 185.92 1068.79 186.156 1068.46 186.295C1068.12 186.434 1067.75 186.471 1067.39 186.4C1067.04 186.329 1066.71 186.154 1066.45 185.897C1066.19 185.639 1066.02 185.312 1065.95 184.955C1065.88 184.598 1065.91 184.229 1066.05 183.893C1066.19 183.557 1066.43 183.269 1066.73 183.067C1067.03 182.865 1067.39 182.757 1067.75 182.757C1068.24 182.757 1068.71 182.951 1069.05 183.296C1069.4 183.641 1069.59 184.109 1069.59 184.596Z" fill="#FFA522"/>
<path d="M1083.51 184.596C1083.51 184.961 1083.4 185.317 1083.2 185.62C1083 185.922 1082.71 186.158 1082.37 186.297C1082.04 186.435 1081.67 186.471 1081.31 186.399C1080.95 186.327 1080.62 186.15 1080.37 185.892C1080.11 185.633 1079.94 185.304 1079.87 184.946C1079.8 184.589 1079.84 184.218 1079.98 183.883C1080.12 183.547 1080.36 183.261 1080.66 183.06C1080.97 182.86 1081.32 182.755 1081.69 182.758C1082.17 182.761 1082.64 182.957 1082.98 183.301C1083.32 183.646 1083.51 184.111 1083.51 184.596Z" fill="#FFA522"/>
<path d="M152.543 418.086C153.947 418.086 155.086 416.947 155.086 415.543C155.086 414.138 153.947 413 152.543 413C151.138 413 150 414.138 150 415.543C150 416.947 151.138 418.086 152.543 418.086Z" fill="#4D4D4D"/>
<path d="M171.88 418.086C173.284 418.086 174.423 416.947 174.423 415.543C174.423 414.138 173.284 413 171.88 413C170.475 413 169.337 414.138 169.337 415.543C169.337 416.947 170.475 418.086 171.88 418.086Z" fill="#4D4D4D"/>
<path d="M193.774 415.543C193.777 416.05 193.629 416.546 193.349 416.969C193.069 417.392 192.67 417.722 192.202 417.917C191.734 418.112 191.219 418.164 190.722 418.066C190.224 417.968 189.767 417.724 189.409 417.365C189.05 417.007 188.806 416.55 188.708 416.053C188.61 415.555 188.662 415.04 188.857 414.572C189.052 414.104 189.382 413.705 189.805 413.425C190.228 413.145 190.724 412.997 191.231 413C191.906 413 192.552 413.268 193.029 413.745C193.506 414.222 193.774 414.868 193.774 415.543Z" fill="#4D4D4D"/>
<path d="M213.112 415.543C213.112 416.046 212.962 416.537 212.683 416.956C212.404 417.374 212.006 417.7 211.542 417.892C211.077 418.085 210.566 418.135 210.073 418.037C209.579 417.939 209.126 417.697 208.771 417.341C208.415 416.985 208.173 416.532 208.075 416.039C207.977 415.546 208.027 415.034 208.219 414.57C208.412 414.105 208.738 413.708 209.156 413.429C209.574 413.149 210.066 413 210.569 413C211.243 413 211.89 413.268 212.367 413.745C212.844 414.222 213.112 414.868 213.112 415.543Z" fill="#4D4D4D"/>
<path d="M232.449 415.543C232.449 416.046 232.3 416.537 232.02 416.956C231.741 417.374 231.344 417.7 230.879 417.892C230.415 418.085 229.903 418.135 229.41 418.037C228.917 417.939 228.464 417.697 228.108 417.341C227.752 416.985 227.51 416.532 227.412 416.039C227.314 415.546 227.364 415.034 227.557 414.57C227.749 414.105 228.075 413.708 228.493 413.429C228.912 413.149 229.403 413 229.906 413C230.581 413 231.227 413.268 231.704 413.745C232.181 414.222 232.449 414.868 232.449 415.543Z" fill="#4D4D4D"/>
<path d="M152.543 436.202C153.947 436.202 155.086 435.063 155.086 433.659C155.086 432.255 153.947 431.116 152.543 431.116C151.138 431.116 150 432.255 150 433.659C150 435.063 151.138 436.202 152.543 436.202Z" fill="#4D4D4D"/>
<path d="M171.88 436.202C173.284 436.202 174.423 435.063 174.423 433.659C174.423 432.255 173.284 431.116 171.88 431.116C170.475 431.116 169.337 432.255 169.337 433.659C169.337 435.063 170.475 436.202 171.88 436.202Z" fill="#4D4D4D"/>
<path d="M193.774 433.659C193.777 434.166 193.629 434.662 193.349 435.085C193.069 435.508 192.67 435.838 192.202 436.033C191.734 436.228 191.219 436.28 190.722 436.182C190.224 436.084 189.767 435.84 189.409 435.481C189.05 435.123 188.806 434.666 188.708 434.169C188.61 433.671 188.662 433.156 188.857 432.688C189.052 432.22 189.382 431.821 189.805 431.541C190.228 431.261 190.724 431.113 191.231 431.116C191.906 431.116 192.552 431.384 193.029 431.861C193.506 432.338 193.774 432.985 193.774 433.659Z" fill="#4D4D4D"/>
<path d="M213.112 433.659C213.112 434.162 212.962 434.654 212.683 435.072C212.404 435.49 212.006 435.816 211.542 436.008C211.077 436.201 210.566 436.251 210.073 436.153C209.579 436.055 209.126 435.813 208.771 435.457C208.415 435.101 208.173 434.648 208.075 434.155C207.977 433.662 208.027 433.15 208.219 432.686C208.412 432.221 208.738 431.824 209.156 431.545C209.574 431.265 210.066 431.116 210.569 431.116C211.243 431.116 211.89 431.384 212.367 431.861C212.844 432.338 213.112 432.985 213.112 433.659Z" fill="#4D4D4D"/>
<path d="M232.449 433.659C232.449 434.162 232.3 434.654 232.02 435.072C231.741 435.49 231.344 435.816 230.879 436.008C230.415 436.201 229.903 436.251 229.41 436.153C228.917 436.055 228.464 435.813 228.108 435.457C227.752 435.101 227.51 434.648 227.412 434.155C227.314 433.662 227.364 433.15 227.557 432.686C227.749 432.221 228.075 431.824 228.493 431.545C228.912 431.265 229.403 431.116 229.906 431.116C230.581 431.116 231.227 431.384 231.704 431.861C232.181 432.338 232.449 432.985 232.449 433.659Z" fill="#4D4D4D"/>
<path d="M155.086 451.775C155.086 452.278 154.937 452.769 154.657 453.188C154.378 453.606 153.981 453.932 153.516 454.124C153.051 454.317 152.54 454.367 152.047 454.269C151.554 454.171 151.1 453.929 150.745 453.573C150.389 453.217 150.147 452.764 150.049 452.271C149.951 451.778 150.001 451.266 150.194 450.802C150.386 450.337 150.712 449.94 151.13 449.661C151.548 449.381 152.04 449.232 152.543 449.232C153.217 449.232 153.864 449.5 154.341 449.977C154.818 450.454 155.086 451.1 155.086 451.775Z" fill="#4D4D4D"/>
<path d="M174.423 451.775C174.423 452.278 174.273 452.769 173.994 453.188C173.715 453.606 173.318 453.932 172.853 454.124C172.388 454.317 171.877 454.367 171.384 454.269C170.89 454.171 170.437 453.929 170.082 453.573C169.726 453.217 169.484 452.764 169.386 452.271C169.288 451.778 169.338 451.266 169.53 450.802C169.723 450.337 170.049 449.94 170.467 449.661C170.885 449.381 171.377 449.232 171.88 449.232C172.554 449.232 173.201 449.5 173.678 449.977C174.155 450.454 174.423 451.1 174.423 451.775Z" fill="#4D4D4D"/>
<path d="M193.774 451.775C193.777 452.282 193.629 452.778 193.349 453.201C193.069 453.624 192.67 453.954 192.202 454.149C191.734 454.344 191.219 454.396 190.722 454.298C190.224 454.2 189.767 453.956 189.409 453.597C189.05 453.239 188.806 452.782 188.708 452.285C188.61 451.787 188.662 451.272 188.857 450.804C189.052 450.336 189.382 449.937 189.805 449.657C190.228 449.377 190.724 449.229 191.231 449.232C191.906 449.232 192.552 449.5 193.029 449.977C193.506 450.454 193.774 451.101 193.774 451.775Z" fill="#4D4D4D"/>
<path d="M213.112 451.775C213.112 452.278 212.962 452.769 212.683 453.188C212.404 453.606 212.006 453.932 211.542 454.124C211.077 454.317 210.566 454.367 210.073 454.269C209.579 454.171 209.126 453.929 208.771 453.573C208.415 453.217 208.173 452.764 208.075 452.271C207.977 451.778 208.027 451.266 208.219 450.802C208.412 450.337 208.738 449.94 209.156 449.661C209.574 449.381 210.066 449.232 210.569 449.232C211.243 449.232 211.89 449.5 212.367 449.977C212.844 450.454 213.112 451.1 213.112 451.775Z" fill="#4D4D4D"/>
<path d="M232.449 451.775C232.449 452.278 232.3 452.769 232.02 453.188C231.741 453.606 231.344 453.932 230.879 454.124C230.415 454.317 229.903 454.367 229.41 454.269C228.917 454.171 228.464 453.929 228.108 453.573C227.752 453.217 227.51 452.764 227.412 452.271C227.314 451.778 227.364 451.266 227.557 450.802C227.749 450.337 228.075 449.94 228.493 449.661C228.912 449.381 229.403 449.232 229.906 449.232C230.581 449.232 231.227 449.5 231.704 449.977C232.181 450.454 232.449 451.1 232.449 451.775Z" fill="#4D4D4D"/>
<path d="M152.543 472.434C153.947 472.434 155.086 471.295 155.086 469.891C155.086 468.487 153.947 467.348 152.543 467.348C151.138 467.348 150 468.487 150 469.891C150 471.295 151.138 472.434 152.543 472.434Z" fill="#4D4D4D"/>
<path d="M171.88 472.434C173.284 472.434 174.423 471.295 174.423 469.891C174.423 468.487 173.284 467.348 171.88 467.348C170.475 467.348 169.337 468.487 169.337 469.891C169.337 471.295 170.475 472.434 171.88 472.434Z" fill="#4D4D4D"/>
<path d="M193.775 469.891C193.789 470.4 193.651 470.902 193.378 471.332C193.105 471.762 192.71 472.101 192.243 472.306C191.777 472.51 191.26 472.57 190.759 472.478C190.258 472.387 189.795 472.148 189.431 471.791C189.067 471.435 188.817 470.979 188.714 470.48C188.611 469.981 188.659 469.463 188.853 468.991C189.046 468.52 189.376 468.118 189.8 467.835C190.224 467.552 190.722 467.403 191.232 467.406C191.895 467.409 192.531 467.67 193.006 468.134C193.48 468.598 193.756 469.228 193.775 469.891Z" fill="#4D4D4D"/>
<path d="M213.111 469.891C213.123 470.396 212.983 470.893 212.711 471.319C212.439 471.745 212.046 472.079 211.582 472.281C211.119 472.482 210.606 472.541 210.109 472.449C209.612 472.358 209.153 472.12 208.792 471.767C208.43 471.414 208.182 470.961 208.08 470.466C207.977 469.971 208.024 469.457 208.214 468.989C208.405 468.521 208.731 468.12 209.15 467.838C209.569 467.556 210.063 467.406 210.569 467.406C211.233 467.405 211.871 467.665 212.347 468.13C212.822 468.594 213.096 469.226 213.111 469.891Z" fill="#4D4D4D"/>
<path d="M232.449 469.891C232.46 470.396 232.321 470.893 232.048 471.319C231.776 471.745 231.383 472.079 230.92 472.281C230.456 472.482 229.943 472.541 229.446 472.449C228.949 472.358 228.491 472.12 228.129 471.767C227.768 471.414 227.52 470.961 227.417 470.466C227.314 469.971 227.361 469.457 227.552 468.989C227.742 468.521 228.068 468.12 228.487 467.838C228.907 467.556 229.401 467.406 229.906 467.406C230.571 467.405 231.209 467.665 231.684 468.13C232.159 468.594 232.434 469.226 232.449 469.891Z" fill="#4D4D4D"/>
<path d="M155.086 487.993C155.086 488.496 154.937 488.987 154.657 489.405C154.378 489.824 153.981 490.149 153.516 490.342C153.051 490.534 152.54 490.585 152.047 490.487C151.554 490.388 151.1 490.146 150.745 489.791C150.389 489.435 150.147 488.982 150.049 488.489C149.951 487.995 150.001 487.484 150.194 487.02C150.386 486.555 150.712 486.158 151.13 485.878C151.548 485.599 152.04 485.45 152.543 485.45C153.217 485.45 153.864 485.718 154.341 486.195C154.818 486.671 155.086 487.318 155.086 487.993Z" fill="#4D4D4D"/>
<path d="M174.423 487.993C174.423 488.496 174.273 488.987 173.994 489.405C173.715 489.824 173.318 490.149 172.853 490.342C172.388 490.534 171.877 490.585 171.384 490.487C170.89 490.388 170.437 490.146 170.082 489.791C169.726 489.435 169.484 488.982 169.386 488.489C169.288 487.995 169.338 487.484 169.53 487.02C169.723 486.555 170.049 486.158 170.467 485.878C170.885 485.599 171.377 485.45 171.88 485.45C172.554 485.45 173.201 485.718 173.678 486.195C174.155 486.671 174.423 487.318 174.423 487.993Z" fill="#4D4D4D"/>
<path d="M193.774 487.993C193.777 488.5 193.629 488.996 193.349 489.419C193.069 489.841 192.67 490.171 192.202 490.367C191.734 490.562 191.219 490.614 190.722 490.516C190.224 490.418 189.767 490.174 189.409 489.815C189.05 489.457 188.806 489 188.708 488.502C188.61 488.005 188.662 487.49 188.857 487.022C189.052 486.554 189.382 486.155 189.805 485.875C190.228 485.595 190.724 485.447 191.231 485.45C191.906 485.45 192.552 485.718 193.029 486.195C193.506 486.671 193.774 487.318 193.774 487.993Z" fill="#4D4D4D"/>
<path d="M213.112 487.993C213.112 488.496 212.962 488.987 212.683 489.405C212.404 489.824 212.006 490.149 211.542 490.342C211.077 490.534 210.566 490.585 210.073 490.487C209.579 490.388 209.126 490.146 208.771 489.791C208.415 489.435 208.173 488.982 208.075 488.489C207.977 487.995 208.027 487.484 208.219 487.02C208.412 486.555 208.738 486.158 209.156 485.878C209.574 485.599 210.066 485.45 210.569 485.45C211.243 485.45 211.89 485.718 212.367 486.195C212.844 486.671 213.112 487.318 213.112 487.993Z" fill="#4D4D4D"/>
<path d="M232.449 487.993C232.449 488.496 232.3 488.987 232.02 489.405C231.741 489.824 231.344 490.149 230.879 490.342C230.415 490.534 229.903 490.585 229.41 490.487C228.917 490.388 228.464 490.146 228.108 489.791C227.752 489.435 227.51 488.982 227.412 488.489C227.314 487.995 227.364 487.484 227.557 487.02C227.749 486.555 228.075 486.158 228.493 485.878C228.912 485.599 229.403 485.45 229.906 485.45C230.581 485.45 231.227 485.718 231.704 486.195C232.181 486.671 232.449 487.318 232.449 487.993Z" fill="#4D4D4D"/>
<path d="M1108.54 505.513C1108.54 505.956 1108.41 506.389 1108.16 506.758C1107.91 507.127 1107.56 507.414 1107.15 507.583C1106.75 507.753 1106.29 507.797 1105.86 507.711C1105.43 507.625 1105.03 507.411 1104.71 507.098C1104.4 506.784 1104.19 506.385 1104.1 505.95C1104.01 505.515 1104.06 505.065 1104.23 504.655C1104.4 504.246 1104.68 503.896 1105.05 503.649C1105.42 503.403 1105.85 503.272 1106.3 503.272C1106.89 503.272 1107.46 503.508 1107.88 503.928C1108.3 504.348 1108.54 504.918 1108.54 505.513Z" fill="#FFA522"/>
<path d="M1125.58 505.513C1125.58 505.956 1125.45 506.389 1125.2 506.758C1124.95 507.127 1124.6 507.414 1124.19 507.583C1123.78 507.753 1123.33 507.797 1122.9 507.711C1122.46 507.625 1122.06 507.411 1121.75 507.098C1121.44 506.784 1121.22 506.385 1121.14 505.95C1121.05 505.515 1121.1 505.065 1121.27 504.655C1121.43 504.246 1121.72 503.896 1122.09 503.649C1122.46 503.403 1122.89 503.272 1123.34 503.272C1123.93 503.272 1124.5 503.508 1124.92 503.928C1125.34 504.348 1125.58 504.918 1125.58 505.513Z" fill="#FFA522"/>
<path d="M1142.6 505.513C1142.6 505.956 1142.47 506.389 1142.22 506.758C1141.98 507.127 1141.63 507.414 1141.22 507.583C1140.81 507.753 1140.36 507.797 1139.92 507.711C1139.49 507.625 1139.09 507.411 1138.78 507.098C1138.46 506.784 1138.25 506.385 1138.16 505.95C1138.08 505.515 1138.12 505.065 1138.29 504.655C1138.46 504.246 1138.75 503.896 1139.11 503.649C1139.48 503.403 1139.92 503.272 1140.36 503.272C1140.95 503.272 1141.52 503.508 1141.94 503.928C1142.36 504.348 1142.6 504.918 1142.6 505.513Z" fill="#FFA522"/>
<path d="M1159.64 505.513C1159.64 505.956 1159.51 506.389 1159.26 506.758C1159.02 507.127 1158.67 507.414 1158.26 507.583C1157.85 507.753 1157.4 507.797 1156.96 507.711C1156.53 507.625 1156.13 507.411 1155.81 507.098C1155.5 506.784 1155.29 506.385 1155.2 505.95C1155.11 505.515 1155.16 505.065 1155.33 504.655C1155.5 504.246 1155.78 503.896 1156.15 503.649C1156.52 503.403 1156.96 503.272 1157.4 503.272C1157.99 503.272 1158.56 503.508 1158.98 503.928C1159.4 504.348 1159.64 504.918 1159.64 505.513Z" fill="#FFA522"/>
<path d="M1176.68 505.513C1176.68 505.956 1176.55 506.389 1176.3 506.758C1176.05 507.127 1175.7 507.414 1175.29 507.583C1174.89 507.753 1174.43 507.797 1174 507.711C1173.57 507.625 1173.17 507.411 1172.85 507.098C1172.54 506.784 1172.33 506.385 1172.24 505.95C1172.15 505.515 1172.2 505.065 1172.37 504.655C1172.54 504.246 1172.82 503.896 1173.19 503.649C1173.56 503.403 1173.99 503.272 1174.44 503.272C1175.03 503.272 1175.6 503.508 1176.02 503.928C1176.44 504.348 1176.68 504.918 1176.68 505.513Z" fill="#FFA522"/>
<path d="M1108.54 521.474C1108.54 521.917 1108.41 522.351 1108.16 522.719C1107.91 523.088 1107.56 523.375 1107.15 523.545C1106.75 523.714 1106.29 523.759 1105.86 523.672C1105.43 523.586 1105.03 523.372 1104.71 523.059C1104.4 522.745 1104.19 522.346 1104.1 521.911C1104.01 521.476 1104.06 521.026 1104.23 520.616C1104.4 520.207 1104.68 519.857 1105.05 519.611C1105.42 519.364 1105.85 519.233 1106.3 519.233C1106.89 519.233 1107.46 519.469 1107.88 519.889C1108.3 520.31 1108.54 520.88 1108.54 521.474Z" fill="#FFA522"/>
<path d="M1125.58 521.474C1125.58 521.917 1125.45 522.351 1125.2 522.719C1124.95 523.088 1124.6 523.375 1124.19 523.545C1123.78 523.714 1123.33 523.759 1122.9 523.672C1122.46 523.586 1122.06 523.372 1121.75 523.059C1121.44 522.745 1121.22 522.346 1121.14 521.911C1121.05 521.476 1121.1 521.026 1121.27 520.616C1121.43 520.207 1121.72 519.857 1122.09 519.611C1122.46 519.364 1122.89 519.233 1123.34 519.233C1123.93 519.233 1124.5 519.469 1124.92 519.889C1125.34 520.31 1125.58 520.88 1125.58 521.474Z" fill="#FFA522"/>
<path d="M1142.6 521.474C1142.6 521.917 1142.47 522.351 1142.22 522.719C1141.98 523.088 1141.63 523.375 1141.22 523.545C1140.81 523.714 1140.36 523.759 1139.92 523.672C1139.49 523.586 1139.09 523.372 1138.78 523.059C1138.46 522.745 1138.25 522.346 1138.16 521.911C1138.08 521.476 1138.12 521.026 1138.29 520.616C1138.46 520.207 1138.75 519.857 1139.11 519.611C1139.48 519.364 1139.92 519.233 1140.36 519.233C1140.95 519.233 1141.52 519.469 1141.94 519.889C1142.36 520.31 1142.6 520.88 1142.6 521.474Z" fill="#FFA522"/>
<path d="M1159.64 521.474C1159.64 521.917 1159.51 522.351 1159.26 522.719C1159.02 523.088 1158.67 523.375 1158.26 523.545C1157.85 523.714 1157.4 523.759 1156.96 523.672C1156.53 523.586 1156.13 523.372 1155.81 523.059C1155.5 522.745 1155.29 522.346 1155.2 521.911C1155.11 521.476 1155.16 521.026 1155.33 520.616C1155.5 520.207 1155.78 519.857 1156.15 519.611C1156.52 519.364 1156.96 519.233 1157.4 519.233C1157.99 519.233 1158.56 519.469 1158.98 519.889C1159.4 520.31 1159.64 520.88 1159.64 521.474Z" fill="#FFA522"/>
<path d="M1176.68 521.474C1176.68 521.917 1176.55 522.351 1176.3 522.719C1176.05 523.088 1175.7 523.375 1175.29 523.545C1174.89 523.714 1174.43 523.759 1174 523.672C1173.57 523.586 1173.17 523.372 1172.85 523.059C1172.54 522.745 1172.33 522.346 1172.24 521.911C1172.15 521.476 1172.2 521.026 1172.37 520.616C1172.54 520.207 1172.82 519.857 1173.19 519.611C1173.56 519.364 1173.99 519.233 1174.44 519.233C1175.03 519.233 1175.6 519.469 1176.02 519.889C1176.44 520.31 1176.68 520.88 1176.68 521.474Z" fill="#FFA522"/>
<path d="M1108.54 537.435C1108.54 537.878 1108.41 538.312 1108.16 538.68C1107.91 539.049 1107.56 539.336 1107.15 539.506C1106.75 539.675 1106.29 539.72 1105.86 539.633C1105.43 539.547 1105.03 539.333 1104.71 539.02C1104.4 538.706 1104.19 538.307 1104.1 537.872C1104.01 537.438 1104.06 536.987 1104.23 536.577C1104.4 536.168 1104.68 535.818 1105.05 535.572C1105.42 535.325 1105.85 535.194 1106.3 535.194C1106.89 535.194 1107.46 535.43 1107.88 535.85C1108.3 536.271 1108.54 536.841 1108.54 537.435Z" fill="#FFA522"/>
<path d="M1125.58 537.435C1125.58 537.878 1125.45 538.312 1125.2 538.68C1124.95 539.049 1124.6 539.336 1124.19 539.506C1123.78 539.675 1123.33 539.72 1122.9 539.633C1122.46 539.547 1122.06 539.333 1121.75 539.02C1121.44 538.706 1121.22 538.307 1121.14 537.872C1121.05 537.438 1121.1 536.987 1121.27 536.577C1121.43 536.168 1121.72 535.818 1122.09 535.572C1122.46 535.325 1122.89 535.194 1123.34 535.194C1123.93 535.194 1124.5 535.43 1124.92 535.85C1125.34 536.271 1125.58 536.841 1125.58 537.435Z" fill="#FFA522"/>
<path d="M1142.6 537.435C1142.6 537.878 1142.47 538.312 1142.22 538.68C1141.98 539.049 1141.63 539.336 1141.22 539.506C1140.81 539.675 1140.36 539.72 1139.92 539.633C1139.49 539.547 1139.09 539.333 1138.78 539.02C1138.46 538.706 1138.25 538.307 1138.16 537.872C1138.08 537.438 1138.12 536.987 1138.29 536.577C1138.46 536.168 1138.75 535.818 1139.11 535.572C1139.48 535.325 1139.92 535.194 1140.36 535.194C1140.95 535.194 1141.52 535.43 1141.94 535.85C1142.36 536.271 1142.6 536.841 1142.6 537.435Z" fill="#FFA522"/>
<path d="M1159.64 537.435C1159.64 537.878 1159.51 538.312 1159.26 538.68C1159.02 539.049 1158.67 539.336 1158.26 539.506C1157.85 539.675 1157.4 539.72 1156.96 539.633C1156.53 539.547 1156.13 539.333 1155.81 539.02C1155.5 538.706 1155.29 538.307 1155.2 537.872C1155.11 537.438 1155.16 536.987 1155.33 536.577C1155.5 536.168 1155.78 535.818 1156.15 535.572C1156.52 535.325 1156.96 535.194 1157.4 535.194C1157.99 535.194 1158.56 535.43 1158.98 535.85C1159.4 536.271 1159.64 536.841 1159.64 537.435Z" fill="#FFA522"/>
<path d="M1176.68 537.435C1176.68 537.878 1176.55 538.312 1176.3 538.68C1176.05 539.049 1175.7 539.336 1175.29 539.506C1174.89 539.675 1174.43 539.72 1174 539.633C1173.57 539.547 1173.17 539.333 1172.85 539.02C1172.54 538.706 1172.33 538.307 1172.24 537.872C1172.15 537.438 1172.2 536.987 1172.37 536.577C1172.54 536.168 1172.82 535.818 1173.19 535.572C1173.56 535.325 1173.99 535.194 1174.44 535.194C1175.03 535.194 1175.6 535.43 1176.02 535.85C1176.44 536.271 1176.68 536.841 1176.68 537.435Z" fill="#FFA522"/>
<path d="M1108.54 553.382C1108.54 553.825 1108.41 554.258 1108.16 554.627C1107.91 554.995 1107.56 555.283 1107.15 555.452C1106.75 555.622 1106.29 555.666 1105.86 555.58C1105.43 555.493 1105.03 555.28 1104.71 554.967C1104.4 554.653 1104.19 554.254 1104.1 553.819C1104.01 553.384 1104.06 552.934 1104.23 552.524C1104.4 552.115 1104.68 551.765 1105.05 551.518C1105.42 551.272 1105.85 551.141 1106.3 551.141C1106.89 551.141 1107.46 551.377 1107.88 551.797C1108.3 552.217 1108.54 552.787 1108.54 553.382Z" fill="#FFA522"/>
<path d="M1125.58 553.382C1125.58 553.825 1125.45 554.258 1125.2 554.627C1124.95 554.995 1124.6 555.283 1124.19 555.452C1123.78 555.622 1123.33 555.666 1122.9 555.58C1122.46 555.493 1122.06 555.28 1121.75 554.967C1121.44 554.653 1121.22 554.254 1121.14 553.819C1121.05 553.384 1121.1 552.934 1121.27 552.524C1121.43 552.115 1121.72 551.765 1122.09 551.518C1122.46 551.272 1122.89 551.141 1123.34 551.141C1123.93 551.141 1124.5 551.377 1124.92 551.797C1125.34 552.217 1125.58 552.787 1125.58 553.382Z" fill="#FFA522"/>
<path d="M1142.6 553.382C1142.6 553.825 1142.47 554.258 1142.22 554.627C1141.98 554.995 1141.63 555.283 1141.22 555.452C1140.81 555.622 1140.36 555.666 1139.92 555.58C1139.49 555.493 1139.09 555.28 1138.78 554.967C1138.46 554.653 1138.25 554.254 1138.16 553.819C1138.08 553.384 1138.12 552.934 1138.29 552.524C1138.46 552.115 1138.75 551.765 1139.11 551.518C1139.48 551.272 1139.92 551.141 1140.36 551.141C1140.95 551.141 1141.52 551.377 1141.94 551.797C1142.36 552.217 1142.6 552.787 1142.6 553.382Z" fill="#FFA522"/>
<path d="M1159.64 553.382C1159.64 553.825 1159.51 554.258 1159.26 554.627C1159.02 554.995 1158.67 555.283 1158.26 555.452C1157.85 555.622 1157.4 555.666 1156.96 555.58C1156.53 555.493 1156.13 555.28 1155.81 554.967C1155.5 554.653 1155.29 554.254 1155.2 553.819C1155.11 553.384 1155.16 552.934 1155.33 552.524C1155.5 552.115 1155.78 551.765 1156.15 551.518C1156.52 551.272 1156.96 551.141 1157.4 551.141C1157.99 551.141 1158.56 551.377 1158.98 551.797C1159.4 552.217 1159.64 552.787 1159.64 553.382Z" fill="#FFA522"/>
<path d="M1176.68 553.382C1176.68 553.825 1176.55 554.258 1176.3 554.627C1176.05 554.995 1175.7 555.283 1175.29 555.452C1174.89 555.622 1174.43 555.666 1174 555.58C1173.57 555.493 1173.17 555.28 1172.85 554.967C1172.54 554.653 1172.33 554.254 1172.24 553.819C1172.15 553.384 1172.2 552.934 1172.37 552.524C1172.54 552.115 1172.82 551.765 1173.19 551.518C1173.56 551.272 1173.99 551.141 1174.44 551.141C1175.03 551.141 1175.6 551.377 1176.02 551.797C1176.44 552.217 1176.68 552.787 1176.68 553.382Z" fill="#FFA522"/>
<path d="M1108.54 569.343C1108.54 569.786 1108.41 570.219 1108.16 570.588C1107.91 570.957 1107.56 571.244 1107.15 571.413C1106.75 571.583 1106.29 571.627 1105.86 571.541C1105.43 571.454 1105.03 571.241 1104.71 570.928C1104.4 570.614 1104.19 570.215 1104.1 569.78C1104.01 569.345 1104.06 568.895 1104.23 568.485C1104.4 568.076 1104.68 567.726 1105.05 567.479C1105.42 567.233 1105.85 567.102 1106.3 567.102C1106.89 567.102 1107.46 567.338 1107.88 567.758C1108.3 568.178 1108.54 568.748 1108.54 569.343Z" fill="#FFA522"/>
<path d="M1125.58 569.343C1125.58 569.786 1125.45 570.219 1125.2 570.588C1124.95 570.957 1124.6 571.244 1124.19 571.413C1123.78 571.583 1123.33 571.627 1122.9 571.541C1122.46 571.454 1122.06 571.241 1121.75 570.928C1121.44 570.614 1121.22 570.215 1121.14 569.78C1121.05 569.345 1121.1 568.895 1121.27 568.485C1121.43 568.076 1121.72 567.726 1122.09 567.479C1122.46 567.233 1122.89 567.102 1123.34 567.102C1123.93 567.102 1124.5 567.338 1124.92 567.758C1125.34 568.178 1125.58 568.748 1125.58 569.343Z" fill="#FFA522"/>
<path d="M1142.6 569.343C1142.6 569.786 1142.47 570.219 1142.22 570.588C1141.98 570.957 1141.63 571.244 1141.22 571.413C1140.81 571.583 1140.36 571.627 1139.92 571.541C1139.49 571.454 1139.09 571.241 1138.78 570.928C1138.46 570.614 1138.25 570.215 1138.16 569.78C1138.08 569.345 1138.12 568.895 1138.29 568.485C1138.46 568.076 1138.75 567.726 1139.11 567.479C1139.48 567.233 1139.92 567.102 1140.36 567.102C1140.95 567.102 1141.52 567.338 1141.94 567.758C1142.36 568.178 1142.6 568.748 1142.6 569.343Z" fill="#FFA522"/>
<path d="M1159.64 569.343C1159.64 569.786 1159.51 570.219 1159.26 570.588C1159.02 570.957 1158.67 571.244 1158.26 571.413C1157.85 571.583 1157.4 571.627 1156.96 571.541C1156.53 571.454 1156.13 571.241 1155.81 570.928C1155.5 570.614 1155.29 570.215 1155.2 569.78C1155.11 569.345 1155.16 568.895 1155.33 568.485C1155.5 568.076 1155.78 567.726 1156.15 567.479C1156.52 567.233 1156.96 567.102 1157.4 567.102C1157.99 567.102 1158.56 567.338 1158.98 567.758C1159.4 568.178 1159.64 568.748 1159.64 569.343Z" fill="#FFA522"/>
<path d="M1176.68 569.343C1176.68 569.786 1176.55 570.219 1176.3 570.588C1176.05 570.957 1175.7 571.244 1175.29 571.413C1174.89 571.583 1174.43 571.627 1174 571.541C1173.57 571.454 1173.17 571.241 1172.85 570.928C1172.54 570.614 1172.33 570.215 1172.24 569.78C1172.15 569.345 1172.2 568.895 1172.37 568.485C1172.54 568.076 1172.82 567.726 1173.19 567.479C1173.56 567.233 1173.99 567.102 1174.44 567.102C1175.03 567.102 1175.6 567.338 1176.02 567.758C1176.44 568.178 1176.68 568.748 1176.68 569.343Z" fill="#FFA522"/>
<path d="M1393.52 94.5477H1305.11C1305.27 91.0399 1306.78 87.7288 1309.32 85.3041C1311.86 82.8794 1315.24 81.5281 1318.75 81.5317C1319.75 81.53 1320.76 81.6457 1321.74 81.8765C1322.84 82.1146 1324 81.9921 1325.03 81.5269C1326.07 81.0617 1326.93 80.278 1327.48 79.2905C1328.58 77.3473 1330.14 75.7039 1332.02 74.5046C1333.91 73.3053 1336.06 72.5869 1338.28 72.4124C1340.51 72.2379 1342.74 72.6127 1344.79 73.5039C1346.84 74.3951 1348.63 75.7754 1350.02 77.5235C1350.8 78.5095 1351.88 79.2058 1353.1 79.5003C1354.32 79.7948 1355.61 79.6703 1356.75 79.1469C1358.5 78.3491 1360.41 77.9376 1362.34 77.9401C1364.23 77.9461 1366.1 78.3479 1367.84 79.1197C1369.57 79.8916 1371.12 81.0165 1372.39 82.4224C1373.01 83.0845 1373.79 83.5751 1374.66 83.8469C1375.52 84.1188 1376.45 84.1625 1377.33 83.974C1378.24 83.7823 1379.16 83.686 1380.08 83.6867C1383.23 83.6667 1386.29 84.7374 1388.74 86.7171C1391.19 88.6967 1392.88 91.4634 1393.52 94.5477Z" fill="white"/>
<path d="M1075.64 248.986H987.229C987.321 246.996 987.848 245.049 988.773 243.284C989.697 241.519 990.998 239.977 992.582 238.768C994.166 237.559 995.996 236.712 997.943 236.286C999.889 235.859 1001.91 235.865 1003.85 236.301C1004.96 236.539 1006.11 236.417 1007.15 235.951C1008.18 235.486 1009.04 234.702 1009.6 233.715C1010.7 231.773 1012.26 230.13 1014.14 228.933C1016.03 227.735 1018.18 227.018 1020.4 226.845C1022.63 226.671 1024.86 227.048 1026.91 227.94C1028.95 228.832 1030.75 230.214 1032.14 231.962C1032.91 232.948 1034 233.643 1035.22 233.935C1036.44 234.227 1037.72 234.099 1038.86 233.571C1041.49 232.395 1044.42 232.079 1047.24 232.667C1050.05 233.255 1052.61 234.718 1054.55 236.847C1055.17 237.514 1055.95 238.009 1056.81 238.283C1057.68 238.558 1058.6 238.602 1059.49 238.413C1060.39 238.221 1061.31 238.125 1062.24 238.125C1065.38 238.115 1068.43 239.191 1070.87 241.17C1073.31 243.148 1075 245.909 1075.64 248.986Z" fill="white"/>
<path d="M1334.32 449.197H1422.67C1422.58 447.206 1422.05 445.259 1421.13 443.494C1420.2 441.729 1418.9 440.188 1417.32 438.979C1415.74 437.77 1413.91 436.922 1411.96 436.496C1410.01 436.07 1408 436.075 1406.05 436.511C1404.94 436.749 1403.79 436.627 1402.75 436.162C1401.72 435.696 1400.86 434.913 1400.31 433.925C1399.2 431.983 1397.64 430.341 1395.76 429.143C1393.88 427.945 1391.73 427.228 1389.5 427.055C1387.28 426.882 1385.04 427.258 1382.99 428.15C1380.95 429.043 1379.15 430.424 1377.76 432.172C1376.99 433.158 1375.9 433.853 1374.68 434.145C1373.46 434.437 1372.18 434.309 1371.04 433.781C1368.41 432.606 1365.48 432.289 1362.67 432.877C1359.85 433.466 1357.29 434.928 1355.35 437.057C1354.73 437.723 1353.95 438.217 1353.09 438.491C1352.22 438.766 1351.3 438.811 1350.41 438.623C1349.51 438.432 1348.59 438.336 1347.67 438.336C1344.53 438.339 1341.5 439.42 1339.07 441.398C1336.64 443.376 1334.96 446.129 1334.32 449.197Z" fill="#F2F2F7"/>
<path d="M1167.4 468.002H1073.21C1073.64 464.585 1075.03 461.358 1077.21 458.694C1079.39 456.03 1082.29 454.038 1085.55 452.946C1086.37 452.68 1087.12 452.224 1087.73 451.614C1088.33 451.005 1088.79 450.26 1089.06 449.441C1090.01 446.513 1091.69 443.873 1093.93 441.769C1096.18 439.665 1098.92 438.165 1101.91 437.409C1104.89 436.653 1108.02 436.665 1111 437.446C1113.98 438.226 1116.71 439.748 1118.94 441.87C1119.75 442.645 1120.77 443.16 1121.88 443.35C1122.99 443.539 1124.12 443.394 1125.15 442.933C1127.72 441.818 1130.51 441.31 1133.31 441.449C1136.11 441.588 1138.83 442.37 1141.28 443.735C1143.73 445.099 1145.83 447.01 1147.42 449.317C1149.01 451.625 1150.04 454.268 1150.45 457.041H1150.66C1154.21 457.041 1157.69 458.078 1160.66 460.025C1163.64 461.972 1165.98 464.745 1167.4 468.002Z" fill="#F2F2F7"/>
<path d="M1344.03 219.464L1247.85 123.209C1245.89 121.255 1243.24 120.158 1240.47 120.158C1237.71 120.158 1235.05 121.255 1233.1 123.209L1114.82 241.487C1113.8 242.504 1113 243.721 1112.48 245.062C1111.95 246.402 1111.71 247.836 1111.77 249.274L1115.32 340.802C1115.43 343.715 1116.64 346.478 1118.7 348.539C1120.76 350.6 1123.53 351.808 1126.44 351.922L1217.98 355.485C1219.42 355.537 1220.85 355.294 1222.19 354.77C1223.53 354.246 1224.75 353.453 1225.77 352.439L1344.03 234.16C1345.98 232.208 1347.07 229.566 1347.07 226.812C1347.07 224.058 1345.98 221.416 1344.03 219.464ZM1148.28 319.095C1145.5 316.325 1143.61 312.795 1142.85 308.951C1142.08 305.108 1142.47 301.123 1143.97 297.501C1145.47 293.88 1148.01 290.784 1151.27 288.606C1154.53 286.429 1158.36 285.266 1162.28 285.266C1166.2 285.266 1170.03 286.429 1173.29 288.606C1176.54 290.784 1179.08 293.88 1180.58 297.501C1182.08 301.123 1182.47 305.108 1181.71 308.951C1180.94 312.795 1179.05 316.325 1176.28 319.095C1172.56 322.801 1167.53 324.883 1162.28 324.883C1157.03 324.883 1151.99 322.801 1148.28 319.095Z" fill="url(#paint3_linear)"/>
<path d="M1340.05 215.498L1243.87 119.244C1242.9 118.273 1241.75 117.502 1240.49 116.977C1239.22 116.451 1237.86 116.181 1236.49 116.181C1235.12 116.181 1233.77 116.451 1232.5 116.977C1231.23 117.502 1230.08 118.273 1229.12 119.244L1110.84 237.522C1109.82 238.539 1109.02 239.756 1108.5 241.096C1107.97 242.437 1107.73 243.871 1107.79 245.309L1111.34 336.837C1111.46 339.749 1112.67 342.51 1114.73 344.57C1116.79 346.631 1119.55 347.84 1122.46 347.957L1145 348.833L1176.92 350.068L1209.74 351.347L1214.05 351.505C1215.48 351.561 1216.92 351.32 1218.26 350.795C1219.6 350.271 1220.81 349.476 1221.83 348.459L1340.1 230.195C1342.03 228.238 1343.12 225.592 1343.11 222.838C1343.1 220.084 1342 217.445 1340.05 215.498ZM1163.07 320.373C1158.42 321.546 1153.5 320.994 1149.23 318.817C1144.95 316.641 1141.61 312.989 1139.83 308.538C1138.04 304.086 1137.93 299.138 1139.51 294.61C1141.09 290.082 1144.26 286.281 1148.43 283.911C1152.6 281.542 1157.49 280.765 1162.19 281.725C1166.89 282.684 1171.08 285.315 1173.99 289.13C1176.9 292.944 1178.33 297.684 1178.01 302.47C1177.69 307.256 1175.64 311.764 1172.25 315.158C1169.72 317.676 1166.54 319.459 1163.07 320.316V320.373Z" fill="url(#paint4_linear)"/>
<g style="mix-blend-mode:multiply" opacity="0.36">
<path d="M1310.86 259.445L1221.79 348.517C1220.77 349.533 1219.55 350.329 1218.21 350.853C1216.87 351.377 1215.44 351.619 1214 351.563L1209.69 351.405L1176.92 350.198L1145 348.962L1163.07 320.316C1168 319.072 1172.27 315.981 1174.99 311.681C1177.7 307.382 1178.66 302.202 1177.67 297.214L1185.04 285.563C1185.69 284.542 1186.54 283.665 1187.54 282.988C1188.54 282.31 1189.67 281.847 1190.86 281.627L1310.86 259.445Z" fill="#FF9224"/>
</g>
<path d="M1385.77 399.69L1365.01 287.374C1364.8 286.241 1364.37 285.16 1363.74 284.193C1363.12 283.226 1362.31 282.392 1361.36 281.74C1360.41 281.087 1359.34 280.628 1358.21 280.389C1357.09 280.151 1355.92 280.137 1354.79 280.348L1216.67 305.863C1215.5 306.093 1214.38 306.561 1213.39 307.238C1212.41 307.915 1211.57 308.787 1210.93 309.8L1169.83 374.822C1168.53 376.886 1168.06 379.36 1168.51 381.754C1168.95 384.148 1170.28 386.288 1172.22 387.752L1233.86 433.724C1234.83 434.444 1235.93 434.957 1237.11 435.231C1238.29 435.505 1239.51 435.535 1240.69 435.319L1378.81 409.79C1381.06 409.35 1383.05 408.046 1384.35 406.158C1385.65 404.271 1386.16 401.948 1385.77 399.69ZM1202.87 375.411C1202.27 372.175 1202.64 368.833 1203.94 365.81C1205.24 362.786 1207.41 360.216 1210.17 358.424C1212.93 356.633 1216.16 355.701 1219.45 355.746C1222.74 355.791 1225.95 356.811 1228.66 358.678C1231.37 360.544 1233.47 363.173 1234.68 366.231C1235.9 369.289 1236.18 372.639 1235.49 375.858C1234.81 379.076 1233.18 382.019 1230.82 384.312C1228.46 386.606 1225.47 388.148 1222.23 388.743C1217.9 389.54 1213.42 388.584 1209.79 386.084C1206.16 383.584 1203.67 379.745 1202.87 375.411Z" fill="url(#paint5_linear)"/>
<path d="M1202.03 370.771C1201.44 367.535 1201.81 364.194 1203.11 361.171C1204.41 358.148 1206.58 355.579 1209.34 353.787C1212.1 351.996 1215.33 351.064 1218.62 351.108C1221.91 351.152 1225.11 352.172 1227.82 354.037C1230.53 355.902 1232.63 358.529 1233.85 361.586C1235.07 364.643 1235.35 367.992 1234.66 371.21C1233.98 374.429 1232.35 377.371 1230 379.666C1227.64 381.961 1224.65 383.505 1221.42 384.103C1217.08 384.904 1212.6 383.949 1208.96 381.449C1205.33 378.949 1202.84 375.108 1202.03 370.771ZM1384.9 395.05L1364.15 282.676C1363.72 280.392 1362.41 278.37 1360.5 277.053C1358.59 275.735 1356.23 275.231 1353.95 275.651L1215.8 301.223C1214.62 301.452 1213.51 301.92 1212.52 302.597C1211.53 303.273 1210.69 304.146 1210.05 305.159L1168.93 370.181C1167.65 372.247 1167.18 374.719 1167.62 377.112C1168.07 379.505 1169.39 381.645 1171.33 383.111L1232.97 429.084C1233.93 429.806 1235.04 430.322 1236.22 430.598C1237.39 430.875 1238.61 430.907 1239.8 430.693L1377.92 405.164C1380.18 404.731 1382.18 403.428 1383.48 401.536C1384.79 399.644 1385.3 397.314 1384.9 395.05Z" fill="url(#paint6_linear)"/>
<path d="M1149.51 314.382C1149.76 315.819 1149.97 317.256 1150.17 318.692" stroke="white" stroke-width="2" stroke-linecap="round" stroke-linejoin="round"/>
<path d="M1151.15 327.485C1154.74 385.841 1097.38 358.516 1032.12 384.376C978.336 405.695 961.513 447.473 956.628 465.445" stroke="white" stroke-width="2" stroke-linecap="round" stroke-linejoin="round" stroke-dasharray="6.19 6.19"/>
<path d="M955.508 469.741C954.919 472.441 954.732 473.979 954.732 473.979C954.141 472.653 954.044 471.16 954.459 469.769" stroke="white" stroke-width="2" stroke-linecap="round" stroke-linejoin="round"/>
<path d="M957.36 461.537C965.98 443.709 993.276 412.491 1049.31 398.986C1120.76 381.746 1175.15 418.022 1205.18 382.335" stroke="white" stroke-width="2" stroke-linecap="round" stroke-linejoin="round" stroke-dasharray="6.09 6.09"/>
<path d="M1207.93 378.844C1208.73 377.709 1209.52 376.503 1210.28 375.238" stroke="white" stroke-width="2" stroke-linecap="round" stroke-linejoin="round"/>
<path d="M1167.73 221.302C1167.73 206.074 1177.55 197.368 1190.57 197.368C1203.59 197.368 1213.43 206.074 1213.43 221.302C1213.43 236.531 1203.6 245.323 1190.57 245.323C1177.54 245.323 1167.73 236.703 1167.73 221.302ZM1245.58 198.589C1247.13 198.605 1248.65 199.04 1249.98 199.848C1251.3 200.657 1252.39 201.808 1253.11 203.181C1253.84 204.555 1254.18 206.098 1254.1 207.649C1254.02 209.2 1253.52 210.701 1252.66 211.993L1205.66 280.822C1204.87 281.974 1203.81 282.917 1202.58 283.57C1201.34 284.224 1199.97 284.567 1198.57 284.572C1197.02 284.554 1195.5 284.117 1194.18 283.308C1192.85 282.498 1191.77 281.346 1191.05 279.974C1190.33 278.601 1189.99 277.058 1190.07 275.508C1190.15 273.959 1190.64 272.459 1191.5 271.168L1238.5 202.324C1239.29 201.175 1240.34 200.235 1241.58 199.585C1242.81 198.934 1244.18 198.592 1245.58 198.589ZM1195.99 221.302C1195.99 213.085 1193.27 210.614 1190.57 210.614C1187.87 210.614 1185.17 213.085 1185.17 221.302C1185.17 229.52 1187.87 231.991 1190.57 231.991C1193.27 231.991 1195.99 229.52 1195.99 221.302ZM1230.74 261.844C1230.74 246.602 1240.57 237.896 1253.58 237.896C1266.6 237.896 1276.42 246.602 1276.42 261.844C1276.42 277.087 1266.6 285.793 1253.58 285.793C1240.57 285.793 1230.74 277.202 1230.74 261.844ZM1258.98 261.844C1258.98 253.613 1256.28 251.156 1253.58 251.156C1250.88 251.156 1248.18 253.613 1248.18 261.844C1248.18 270.076 1250.88 272.533 1253.58 272.533C1256.28 272.533 1258.98 270.076 1258.98 261.844Z" fill="white"/>
<path d="M1266.86 317.902C1273.32 306.955 1284.1 304.872 1293.45 310.403C1302.8 315.934 1306.16 326.364 1299.7 337.311C1293.23 348.258 1282.46 350.356 1273.11 344.825C1263.75 339.294 1260.33 328.95 1266.86 317.902ZM1332.45 334.639C1333.57 335.307 1334.48 336.265 1335.09 337.409C1335.7 338.554 1335.99 339.844 1335.93 341.141C1335.87 342.438 1335.46 343.694 1334.74 344.775C1334.02 345.856 1333.02 346.722 1331.85 347.281L1268.84 376.79C1267.78 377.279 1266.63 377.504 1265.47 377.446C1264.3 377.389 1263.17 377.05 1262.17 376.46C1261.06 375.79 1260.16 374.833 1259.55 373.69C1258.94 372.547 1258.65 371.26 1258.71 369.966C1258.77 368.671 1259.18 367.418 1259.9 366.338C1260.61 365.258 1261.61 364.392 1262.78 363.832L1325.79 334.395C1326.84 333.893 1327.99 333.654 1329.15 333.696C1330.31 333.739 1331.44 334.062 1332.45 334.639ZM1287.17 329.898C1290.66 323.994 1289.76 321.077 1287.82 319.928C1285.88 318.779 1282.89 319.396 1279.4 325.315C1275.91 331.234 1276.8 334.136 1278.74 335.286C1280.68 336.435 1283.66 335.831 1287.17 329.898ZM1294.93 373.788C1301.39 362.84 1312.17 360.757 1321.52 366.274C1330.87 371.791 1334.23 382.249 1327.76 393.197C1321.28 404.144 1310.52 406.227 1301.18 400.696C1291.84 395.165 1288.41 384.821 1294.93 373.788ZM1315.23 385.783C1318.72 379.879 1317.83 376.948 1315.89 375.813C1313.95 374.678 1310.96 375.282 1307.46 381.201C1303.95 387.12 1304.87 390.022 1306.81 391.171C1308.75 392.32 1311.74 391.702 1315.23 385.783Z" fill="white"/>
<g style="mix-blend-mode:soft-light">
<path d="M1196.09 540.337C1196.09 540.905 1195.92 541.461 1195.6 541.933C1195.29 542.406 1194.84 542.774 1194.31 542.992C1193.79 543.209 1193.21 543.266 1192.65 543.155C1192.1 543.044 1191.58 542.771 1191.18 542.369C1190.78 541.967 1190.51 541.455 1190.4 540.898C1190.29 540.34 1190.34 539.763 1190.56 539.238C1190.78 538.713 1191.15 538.264 1191.62 537.948C1192.09 537.632 1192.65 537.464 1193.21 537.464C1193.98 537.464 1194.71 537.767 1195.25 538.305C1195.78 538.844 1196.09 539.575 1196.09 540.337Z" stroke="white" stroke-width="2" stroke-miterlimit="10"/>
</g>
<path d="M1414.76 240.237L1415.3 241.775C1415.52 242.4 1415.88 242.969 1416.35 243.438C1416.81 243.908 1417.38 244.268 1418 244.49L1419.56 245.021L1418 245.567C1417.38 245.784 1416.81 246.14 1416.34 246.608C1415.88 247.076 1415.52 247.643 1415.3 248.268L1414.76 249.805L1414.23 248.268C1414.01 247.639 1413.66 247.068 1413.19 246.6C1412.71 246.131 1412.14 245.778 1411.51 245.567L1409.97 245.021L1411.51 244.49C1412.14 244.27 1412.71 243.912 1413.18 243.442C1413.65 242.972 1414.01 242.402 1414.23 241.775L1414.76 240.237Z" fill="white"/>
<path d="M1066 290.52L1067.08 293.623C1067.52 294.885 1068.24 296.032 1069.18 296.977C1070.13 297.922 1071.27 298.642 1072.54 299.082L1075.64 300.16L1072.54 301.251C1071.27 301.688 1070.13 302.405 1069.18 303.348C1068.24 304.291 1067.52 305.436 1067.08 306.696L1066 309.8L1064.92 306.696C1064.48 305.437 1063.76 304.293 1062.81 303.35C1061.87 302.408 1060.72 301.69 1059.46 301.251L1056.36 300.16L1059.46 299.082C1060.72 298.64 1061.87 297.92 1062.81 296.975C1063.76 296.03 1064.48 294.884 1064.92 293.623L1066 290.52Z" fill="white"/>
<path d="M1351.59 240.769L1352.09 242.205C1352.3 242.792 1352.63 243.325 1353.07 243.765C1353.51 244.205 1354.05 244.541 1354.63 244.748L1356.07 245.251L1354.63 245.754C1354.05 245.959 1353.51 246.294 1353.07 246.735C1352.63 247.175 1352.3 247.709 1352.09 248.297L1351.59 249.734L1351.09 248.297C1350.88 247.709 1350.55 247.175 1350.11 246.735C1349.66 246.294 1349.13 245.959 1348.54 245.754L1347.11 245.251L1348.54 244.748C1349.13 244.541 1349.66 244.205 1350.1 243.765C1350.54 243.325 1350.88 242.792 1351.09 242.205L1351.59 240.769Z" fill="white"/>
<path d="M1410.19 481.607L1410.69 483.044C1410.9 483.632 1411.23 484.166 1411.67 484.606C1412.11 485.046 1412.65 485.382 1413.24 485.587L1414.67 486.09L1413.24 486.592C1412.65 486.8 1412.12 487.135 1411.68 487.575C1411.24 488.015 1410.9 488.549 1410.69 489.135L1410.19 490.572L1409.67 489.135C1409.47 488.549 1409.13 488.015 1408.69 487.575C1408.25 487.135 1407.72 486.8 1407.13 486.592L1405.69 486.09L1407.13 485.587C1407.72 485.382 1408.25 485.046 1408.69 484.606C1409.13 484.166 1409.47 483.632 1409.67 483.044L1410.19 481.607Z" fill="white"/>
<path d="M1193.19 449.197L1193.69 450.633C1193.89 451.22 1194.23 451.752 1194.67 452.19C1195.11 452.628 1195.64 452.96 1196.23 453.162L1197.67 453.679L1196.23 454.182C1195.64 454.387 1195.11 454.722 1194.67 455.163C1194.23 455.603 1193.89 456.137 1193.69 456.725L1193.19 458.161L1192.68 456.725C1192.48 456.137 1192.14 455.603 1191.7 455.163C1191.26 454.722 1190.73 454.387 1190.14 454.182L1188.7 453.679L1190.14 453.162C1190.73 452.96 1191.26 452.628 1191.7 452.19C1192.14 451.752 1192.48 451.22 1192.68 450.633L1193.19 449.197Z" fill="white"/>
<path d="M1393.53 124.717L1394.03 126.154C1394.23 126.742 1394.57 127.276 1395.01 127.716C1395.45 128.156 1395.98 128.491 1396.57 128.697L1398.01 129.2L1396.57 129.702C1395.98 129.908 1395.45 130.243 1395.01 130.683C1394.57 131.123 1394.23 131.657 1394.03 132.245L1393.53 133.682L1393.02 132.245C1392.82 131.657 1392.48 131.123 1392.04 130.683C1391.6 130.243 1391.07 129.908 1390.48 129.702L1389.04 129.2L1390.48 128.697C1391.07 128.491 1391.6 128.156 1392.04 127.716C1392.48 127.276 1392.82 126.742 1393.02 126.154L1393.53 124.717Z" fill="white"/>
<path d="M1362.68 536.645L1363.43 538.771C1363.73 539.634 1364.22 540.418 1364.87 541.065C1365.52 541.711 1366.3 542.204 1367.16 542.506L1369.29 543.239L1367.16 543.986C1366.3 544.285 1365.51 544.776 1364.86 545.423C1364.22 546.071 1363.73 546.856 1363.43 547.721L1362.68 549.848L1361.95 547.721C1361.65 546.858 1361.15 546.074 1360.51 545.428C1359.86 544.781 1359.08 544.289 1358.21 543.986L1356.09 543.239L1358.21 542.506C1359.07 542.2 1359.85 541.705 1360.5 541.059C1361.15 540.413 1361.64 539.632 1361.95 538.771L1362.68 536.645Z" fill="white"/>
<path d="M1146.93 133.596L1147.83 136.196C1148.2 137.255 1148.81 138.217 1149.6 139.01C1150.39 139.804 1151.35 140.408 1152.41 140.779L1155.03 141.684L1152.41 142.603C1151.35 142.974 1150.39 143.578 1149.6 144.372C1148.81 145.165 1148.2 146.127 1147.83 147.186L1146.93 149.786L1146.02 147.186C1145.65 146.127 1145.05 145.165 1144.25 144.372C1143.46 143.578 1142.5 142.974 1141.44 142.603L1138.82 141.684L1141.44 140.779C1142.5 140.408 1143.46 139.804 1144.25 139.01C1145.05 138.217 1145.65 137.255 1146.02 136.196L1146.93 133.596Z" fill="white"/>
<defs>
<linearGradient id="paint0_linear" x1="1334.17" y1="179.216" x2="1445.91" y2="45.5299" gradientUnits="userSpaceOnUse">
<stop stop-color="#453C77"/>
<stop offset="1" stop-color="#5645B6"/>
</linearGradient>
<radialGradient id="paint1_radial" cx="0" cy="0" r="1" gradientUnits="userSpaceOnUse" gradientTransform="translate(231688 215783) scale(164251 163875)">
<stop stop-color="#7A7AFE"/>
<stop offset="0.99" stop-color="#26223E"/>
</radialGradient>
<radialGradient id="paint2_radial" cx="0" cy="0" r="1" gradientUnits="userSpaceOnUse" gradientTransform="translate(237447 179189) scale(132625 137820)">
<stop stop-color="#6868FA"/>
<stop offset="0.99" stop-color="#4524CB"/>
<stop offset="0.9901" stop-color="#3B3462"/>
</radialGradient>
<linearGradient id="paint3_linear" x1="1318.92" y1="433.336" x2="1210.21" y2="248.01" gradientUnits="userSpaceOnUse">
<stop stop-color="#E38700"/>
<stop offset="1" stop-color="#E35B00"/>
</linearGradient>
<linearGradient id="paint4_linear" x1="1107.79" y1="233.916" x2="1343.11" y2="233.916" gradientUnits="userSpaceOnUse">
<stop stop-color="#FFA522"/>
<stop offset="1" stop-color="#FF7E27"/>
</linearGradient>
<linearGradient id="paint5_linear" x1="112108" y1="60643.1" x2="109227" y2="80515.1" gradientUnits="userSpaceOnUse">
<stop stop-color="#E38700"/>
<stop offset="1" stop-color="#E35B00"/>
</linearGradient>
<linearGradient id="paint6_linear" x1="63557.8" y1="35856.2" x2="88214.9" y2="52821.5" gradientUnits="userSpaceOnUse">
<stop stop-color="#FFA522"/>
<stop offset="1" stop-color="#FF7E27"/>
</linearGradient>
</defs>
</svg>
